<svg width="18" height="18" viewBox="0 0 18 18" fill="none" xmlns="http://www.w3.org/2000/svg">
<path d="M8.9998 0C4.03826 0 0.00756073 4.0342 0.00756073 9.00004C0.00756073 13.9659 4.03826 18.0001 8.9998 18.0001C13.9614 18.0001 17.992 13.9659 17.992 9.00004C17.992 4.0342 13.9614 0 8.9998 0ZM8.9998 0.782612C13.5388 0.782612 17.2101 4.45716 17.2101 9.00004C17.2101 13.5429 13.5388 17.2175 8.9998 17.2175C4.46086 17.2175 0.789495 13.5429 0.789495 9.00004C0.789495 4.45716 4.46086 0.782612 8.9998 0.782612ZM12.9049 5.08239C12.8414 5.08365 12.7791 5.10039 12.7235 5.13116C12.6679 5.1619 12.6206 5.20576 12.5857 5.25894L8.59738 11.143L5.74683 8.49562C5.7094 8.45957 5.66514 8.43133 5.61668 8.4126C5.56819 8.39384 5.51647 8.38496 5.46454 8.38645C5.4126 8.38793 5.36146 8.39975 5.31414 8.42126C5.26683 8.44276 5.22427 8.47346 5.18893 8.51162C5.15362 8.54977 5.12625 8.59457 5.10844 8.64342C5.0906 8.69228 5.0827 8.74419 5.08515 8.79615C5.08761 8.84811 5.10039 8.89905 5.12275 8.94599C5.14511 8.99294 5.17661 9.03498 5.21537 9.06959L8.73254 12.3361L13.2333 5.69764C13.2745 5.63843 13.2987 5.56896 13.3029 5.49688C13.3072 5.42481 13.2915 5.35295 13.2575 5.28927C13.2235 5.22561 13.1726 5.17256 13.1103 5.13605C13.0481 5.09954 12.977 5.08098 12.9049 5.08239Z" fill="#35C92E"/>
</svg>
