<svg width="20" height="20" viewBox="0 0 20 20" fill="none" xmlns="http://www.w3.org/2000/svg">
<path fill-rule="evenodd" clip-rule="evenodd" d="M13.125 2.49984V18.3332C13.125 18.4989 13.0591 18.6579 12.9419 18.7751C12.8247 18.8923 12.6657 18.9582 12.5 18.9582H2.49996C2.11329 18.9582 1.74246 18.8048 1.46913 18.5307C1.33354 18.3954 1.22598 18.2348 1.15262 18.0579C1.07926 17.881 1.04154 17.6913 1.04163 17.4998V2.49984C1.04163 2.11317 1.19496 1.74234 1.46913 1.469C1.60436 1.33342 1.76503 1.22586 1.94193 1.1525C2.11882 1.07914 2.30846 1.04142 2.49996 1.0415H11.6666C12.0533 1.0415 12.4241 1.19484 12.6975 1.469C12.9716 1.74234 13.125 2.11317 13.125 2.49984ZM11.875 2.49984C11.875 2.44458 11.853 2.39159 11.8139 2.35252C11.7749 2.31345 11.7219 2.2915 11.6666 2.2915H2.49996C2.44471 2.2915 2.39172 2.31345 2.35265 2.35252C2.31358 2.39159 2.29163 2.44458 2.29163 2.49984V17.4998C2.29163 17.5551 2.31358 17.6081 2.35265 17.6472C2.39172 17.6862 2.44471 17.7082 2.49996 17.7082H11.875V2.49984Z" fill="white"/>
<path fill-rule="evenodd" clip-rule="evenodd" d="M9.79158 12.9167V18.3333C9.79158 18.4991 9.72574 18.6581 9.60853 18.7753C9.49132 18.8925 9.33235 18.9583 9.16658 18.9583H4.99992C4.83416 18.9583 4.67519 18.8925 4.55798 18.7753C4.44077 18.6581 4.37492 18.4991 4.37492 18.3333V12.9167C4.37536 12.6405 4.48525 12.3758 4.6805 12.1806C4.87576 11.9853 5.14045 11.8754 5.41659 11.875H8.74992C9.02592 11.8759 9.29036 11.9859 9.48552 12.1811C9.68068 12.3762 9.79071 12.6407 9.79158 12.9167ZM5.62492 13.125V17.7083H8.54158V13.125H5.62492ZM18.9583 7.5V17.5C18.9583 17.8868 18.8046 18.2577 18.5311 18.5312C18.2576 18.8047 17.8867 18.9583 17.4999 18.9583H12.4999C12.3342 18.9583 12.1752 18.8925 12.058 18.7753C11.9408 18.6581 11.8749 18.4991 11.8749 18.3333V6.66667C11.8749 6.50091 11.9408 6.34194 12.058 6.22473C12.1752 6.10751 12.3342 6.04167 12.4999 6.04167H17.4999C18.3049 6.04167 18.9583 6.69417 18.9583 7.5ZM17.7083 7.5C17.7083 7.44475 17.6863 7.39176 17.6472 7.35269C17.6082 7.31362 17.5552 7.29167 17.4999 7.29167H13.1249V17.7083H17.4999C17.5552 17.7083 17.6082 17.6864 17.6472 17.6473C17.6863 17.6082 17.7083 17.5553 17.7083 17.5V7.5ZM3.95825 3.75H5.20825V5H3.95825V3.75ZM3.95825 6.66667H5.20825V7.91667H3.95825V6.66667ZM3.95825 9.58333H5.20825V10.8333H3.95825V9.58333ZM6.45825 3.75H7.70825V5H6.45825V3.75ZM6.45825 6.66667H7.70825V7.91667H6.45825V6.66667ZM6.45825 9.58333H7.70825V10.8333H6.45825V9.58333ZM8.95825 3.75H10.2083V5H8.95825V3.75Z" fill="white"/>
<path fill-rule="evenodd" clip-rule="evenodd" d="M14.7916 8.95817H16.0416V10.2082H14.7916V8.95817ZM14.7916 11.8748H16.0416V13.1248H14.7916V11.8748ZM14.7916 14.7915H16.0416V16.0415H14.7916V14.7915ZM8.95825 6.6665H10.2083V7.9165H8.95825V6.6665ZM8.95825 9.58317H10.2083V10.8332H8.95825V9.58317Z" fill="white"/>
</svg>
