<svg width="20" height="20" viewBox="0 0 20 20" fill="none" xmlns="http://www.w3.org/2000/svg">
<path d="M18.8642 6.42879L11.2106 1.74293L11.2047 1.73934C10.8416 1.52141 10.425 1.40625 10 1.40625C9.575 1.40625 9.15844 1.52141 8.79531 1.7393L8.78938 1.74289L1.13578 6.42879C0.435078 6.85074 0 7.62004 0 8.4375V16.25C0 17.5423 1.05141 18.5938 2.34375 18.5938H17.6562C18.9486 18.5938 20 17.5423 20 16.25V8.4375C20 7.62004 19.5649 6.85074 18.8642 6.42879ZM18.4375 16.25C18.4375 16.6808 18.087 17.0312 17.6562 17.0312H2.34375C1.91297 17.0312 1.5625 16.6808 1.5625 16.25V8.4375C1.5625 8.16035 1.70473 7.90957 1.94293 7.76668L1.94898 7.76301L9.60172 3.0777C9.72145 3.00641 9.8591 2.96875 10 2.96875C10.1409 2.96875 10.2786 3.00641 10.3983 3.0777L18.051 7.76301L18.057 7.76668C18.2953 7.90957 18.4375 8.16035 18.4375 8.4375V16.25Z" fill="white"/>
<path d="M8.79532 13.5732L3.5043 10.3049C3.1343 10.0829 3.01434 9.60299 3.23633 9.23299C3.45836 8.86303 3.93836 8.74307 4.30821 8.96502L9.59926 12.2334C9.84438 12.3804 10.1553 12.3806 10.4007 12.2334L15.6918 8.96498C16.0618 8.74299 16.5416 8.86291 16.7637 9.23295C16.9857 9.60295 16.8657 10.0828 16.4957 10.3048L11.2047 13.5732C10.4651 14.017 9.53575 14.0175 8.79532 13.5732Z" fill="white"/>
</svg>
