<svg width="20" height="20" viewBox="0 0 20 20" fill="none" xmlns="http://www.w3.org/2000/svg">
<path fill-rule="evenodd" clip-rule="evenodd" d="M3.60001 18.8002H14.8C16.1232 18.8002 17.2 17.7234 17.2 16.4002V6.4002C17.2001 6.29513 17.1795 6.19107 17.1392 6.09401C17.099 5.99695 17.04 5.90879 16.9656 5.8346L12.5656 1.4346C12.4914 1.36016 12.4033 1.30113 12.3062 1.2609C12.2092 1.22068 12.1051 1.20004 12 1.2002H5.20001C3.87681 1.2002 2.80001 2.277 2.80001 3.6002V6.8002C2.80001 7.01237 2.8843 7.21585 3.03433 7.36588C3.18436 7.51591 3.38784 7.6002 3.60001 7.6002C3.81219 7.6002 4.01567 7.51591 4.1657 7.36588C4.31573 7.21585 4.40001 7.01237 4.40001 6.8002V3.6002C4.40001 3.1594 4.75921 2.8002 5.20001 2.8002H10.8V6.8002C10.8 7.01237 10.8843 7.21585 11.0343 7.36588C11.1844 7.51591 11.3878 7.6002 11.6 7.6002H15.6V16.4002C15.6 16.6124 15.5157 16.8159 15.3657 16.9659C15.2157 17.1159 15.0122 17.2002 14.8 17.2002H3.60001C3.38784 17.2002 3.18436 17.2845 3.03433 17.4345C2.8843 17.5845 2.80001 17.788 2.80001 18.0002C2.80001 18.2124 2.8843 18.4159 3.03433 18.5659C3.18436 18.7159 3.38784 18.8002 3.60001 18.8002ZM14.8688 6.0002L12.4 3.5314V6.0002H14.8688Z" fill="white"/>
<path d="M8.06881 13.2002H2.00001C1.78784 13.2002 1.58436 13.1159 1.43433 12.9659C1.2843 12.8159 1.20001 12.6124 1.20001 12.4002C1.20001 12.188 1.2843 11.9845 1.43433 11.8345C1.58436 11.6845 1.78784 11.6002 2.00001 11.6002H8.06881L7.03441 10.5658C6.88441 10.4158 6.80013 10.2123 6.80013 10.0002C6.80013 9.78805 6.88441 9.5846 7.03441 9.4346C7.18442 9.28459 7.38787 9.20032 7.60001 9.20032C7.81215 9.20032 8.01561 9.28459 8.16561 9.4346L10.5528 11.8218C10.6309 11.8965 10.693 11.9863 10.7355 12.0857C10.7779 12.1851 10.7998 12.2921 10.7998 12.4002C10.7998 12.5083 10.7779 12.6153 10.7355 12.7147C10.693 12.8141 10.6309 12.9038 10.5528 12.9786L8.16561 15.3658C8.09149 15.4403 8.00336 15.4995 7.90629 15.5399C7.80923 15.5802 7.70514 15.601 7.60001 15.601C7.49489 15.601 7.3908 15.5802 7.29373 15.5399C7.19666 15.4995 7.10853 15.4403 7.03441 15.3658C6.96006 15.2916 6.90106 15.2034 6.86082 15.1063C6.82057 15.0093 6.79985 14.9053 6.79985 14.8002C6.79985 14.6951 6.82057 14.5911 6.86082 14.494C6.90106 14.397 6.96006 14.3088 7.03441 14.2346L8.06881 13.2002Z" fill="white"/>
</svg>
