<svg width="20" height="20" viewBox="0 0 20 20" fill="none" xmlns="http://www.w3.org/2000/svg">
<path d="M16.875 4.375H14.375V3.75C14.375 3.25272 14.1775 2.77581 13.8258 2.42417C13.4742 2.07254 12.9973 1.875 12.5 1.875H7.5C7.00272 1.875 6.52581 2.07254 6.17417 2.42417C5.82254 2.77581 5.625 3.25272 5.625 3.75V4.375H3.125C2.62772 4.375 2.15081 4.57254 1.79917 4.92417C1.44754 5.27581 1.25 5.75272 1.25 6.25V16.25C1.25 16.7473 1.44754 17.2242 1.79917 17.5758C2.15081 17.9275 2.62772 18.125 3.125 18.125H16.875C17.3723 18.125 17.8492 17.9275 18.2008 17.5758C18.5525 17.2242 18.75 16.7473 18.75 16.25V6.25C18.75 5.75272 18.5525 5.27581 18.2008 4.92417C17.8492 4.57254 17.3723 4.375 16.875 4.375ZM6.875 3.75C6.875 3.58424 6.94085 3.42527 7.05806 3.30806C7.17527 3.19085 7.33424 3.125 7.5 3.125H12.5C12.6658 3.125 12.8247 3.19085 12.9419 3.30806C13.0592 3.42527 13.125 3.58424 13.125 3.75V4.375H6.875V3.75ZM2.5 6.25C2.5 6.08424 2.56585 5.92527 2.68306 5.80806C2.80027 5.69085 2.95924 5.625 3.125 5.625H16.875C17.0408 5.625 17.1997 5.69085 17.3169 5.80806C17.4342 5.92527 17.5 6.08424 17.5 6.25V8.125C17.5 8.62228 17.3025 9.09919 16.9508 9.45083C16.5992 9.80246 16.1223 10 15.625 10H11.875C11.875 9.66848 11.7433 9.35054 11.5089 9.11612C11.2745 8.8817 10.9565 8.75 10.625 8.75H9.375C9.04348 8.75 8.72554 8.8817 8.49112 9.11612C8.2567 9.35054 8.125 9.66848 8.125 10H4.375C3.87772 10 3.40081 9.80246 3.04917 9.45083C2.69754 9.09919 2.5 8.62228 2.5 8.125V6.25ZM10.625 11.25H9.375V10H10.625V11.25ZM16.875 16.875H3.125C2.95924 16.875 2.80027 16.8092 2.68306 16.6919C2.56585 16.5747 2.5 16.4158 2.5 16.25V10.6088C3.03774 11.0224 3.69658 11.2477 4.375 11.25H8.125C8.125 11.5815 8.2567 11.8995 8.49112 12.1339C8.72554 12.3683 9.04348 12.5 9.375 12.5H10.625C10.9565 12.5 11.2745 12.3683 11.5089 12.1339C11.7433 11.8995 11.875 11.5815 11.875 11.25H15.625C16.3034 11.2477 16.9623 11.0224 17.5 10.6088V16.25C17.5 16.4158 17.4342 16.5747 17.3169 16.6919C17.1997 16.8092 17.0408 16.875 16.875 16.875Z" fill="white"/>
</svg>
