<svg width="20" height="20" viewBox="0 0 20 20" fill="none" xmlns="http://www.w3.org/2000/svg">
<path d="M15.4833 7.97497L7.29999 2.06664C6.53332 1.51664 5.53332 1.44164 4.69999 1.86664C4.28997 2.07563 3.94594 2.39423 3.70614 2.78703C3.46634 3.17982 3.34017 3.63143 3.34166 4.09164V15.9083C3.34089 16.2368 3.40503 16.5623 3.53039 16.8659C3.65576 17.1696 3.83987 17.4455 4.07217 17.6778C4.30447 17.9101 4.58038 18.0942 4.88404 18.2196C5.1877 18.3449 5.51314 18.4091 5.84166 18.4083C6.35832 18.4083 6.86666 18.25 7.29999 17.9333L15.4833 12.025C16.1417 11.55 16.5167 10.8083 16.5167 9.99997C16.5167 9.19164 16.1417 8.44997 15.4833 7.97497ZM14.5083 10.675L6.32499 16.5833C6.06666 16.775 5.74166 16.7916 5.45832 16.65C5.17499 16.5083 5.00832 16.225 5.00832 15.9083V4.09164C5.00832 3.77497 5.17499 3.49164 5.45832 3.34997C5.58332 3.2833 5.70832 3.2583 5.84166 3.2583C6.00832 3.2583 6.18332 3.3083 6.32499 3.41664L14.5083 9.32497C14.6146 9.40289 14.7008 9.50488 14.76 9.62259C14.8192 9.74029 14.8496 9.87035 14.8488 10.0021C14.848 10.1338 14.816 10.2635 14.7553 10.3805C14.6947 10.4975 14.6072 10.5984 14.5 10.675H14.5083Z" fill="white"/>
</svg>
